<svg version="1.0" xmlns="http://www.w3.org/2000/svg" width="933.333" height="933.333" viewBox="0 0 700 700"><path d="M63 16.1c-8.8 2.3-15.5 5.3-18.5 8.3-1.4 1.4-2.5 2.3-2.5 2 0-.5-6.8 6.4-8.5 8.7-3 4-6.5 12.3-8.1 19.4-1.6 7.5-1.8 16.1-1.8 131.5v123.5h38.7c21.4 0 39.2-.2 39.6-.5.4-.3.8-48.2.7-106.6-.1-103.1 0-106.2 1.8-109.7 1.1-1.9 3-4 4.3-4.6 1.3-.6 2.3-1.4 2.3-1.9s5.7-1 12.8-1.1c7-.2 16.1-.4 20.2-.6 14.8-.7 25.7-.7 37-.1 19.8 1.1 22.8 1.4 24.1 2.1.8.6 1 .4.4-.5-.6-1-.4-1.1 1.1-.6 1 .5 2.5.9 3.2.9.6 0 1.2.5 1.2 1 0 .6.3.8.6.5.3-.3 1.9.7 3.6 2.3l3.1 2.8.2 107.8c.1 59.3.2 108 .3 108.3.1.3 18.1.5 40 .5h39.7l.2-125.5c.1-106.9-.1-126.3-1.3-131-.8-3-1.9-5.7-2.5-6.1-.6-.3-1-.9-.9-1.3.2-1.1-2.4-6.6-3.2-6.6-.5 0-.8-.7-.8-1.5 0-.7-.8-1.9-1.7-2.4-1-.6-1.4-1.1-.9-1.1 1.4 0-10.7-11-12.1-11-.7 0-1.3-.3-1.3-.8 0-.9-11.1-4.8-16-5.6-1.9-.3-4.6-.9-6-1.3-1.4-.3-43-.7-92.5-.8-81.7-.1-90.6.1-96.5 1.6zm401.6 5.6c-.2.2-12.4 1.6-14.3 1.6-.7 0-1.3.4-1.3.9s-.4.6-1 .3c-.5-.3-1-.2-1 .2 0 .5-1.2 1-2.7 1.1-1.5.1-3 .6-3.3 1.2-.3.5-1.5 1.1-2.5 1.3-3.1.6-5.8 1.9-7.7 3.5-1 .8-1.8 1.1-1.8.6 0-.5-.4-.4-.8.1-.4.6-2.7 2.3-5.2 3.9-7.1 4.6-17 13-17 14.4 0 .7-.4 1-1 .7-.5-.3-1-.2-1 .3 0 .6-1.6 2.7-3.5 4.8-1.9 2.2-3.8 4.9-4.1 6.1-.3 1.3-.9 2.3-1.3 2.3-.6 0-4.1 5.3-4.2 6.5-.2 2.2-1.3 4.5-2.2 4.5-.6 0-.8.3-.4.6.3.3-.3 3-1.3 6-1.1 3-1.7 5.4-1.5 5.4.3 0 0 1.1-.4 2.4-1.8 4.6-2.3 16.5-2.3 50.5 0 19.1.1 35.1.1 35.7.1 1.4 72.9 1.4 73.4-.1.2-.5.3-15 .2-32-.1-17.1.1-31.5.4-32 .3-.6.6-1.5.7-2 .9-4.7 7.1-12.2 11.2-13.5.9-.3 30.7-.5 66.1-.5 63.4 0 64.4.1 64.8 2 .7 3.6.6 14.1-.1 15.3-.4.7-.4 1.2.1 1.2.9 0 .9 28 0 30.4-.4.9-.3 1.6.1 1.6s.7 4 .7 9c0 4.9-.4 9-.8 9-.5 0-.5.5-.2 1 1.1 1.8 1.3 40.3.2 46-.6 3-2.1 7.2-3.4 9.3-2.3 3.6-16.1 17.7-50.2 51.1-7.8 7.7-15.3 15.2-16.7 16.8-1.3 1.6-2.4 2.7-2.4 2.4 0-.2-4.3 3.9-9.5 9.2-5.2 5.3-9.5 10-9.5 10.4 0 .4-.7.8-1.5.8s-1.5.4-1.5.8c0 .7-61.2 62.4-83.5 84.2-5.4 5.2-9.6 9.7-9.5 9.9.1.2-1 1.1-2.4 2.1-1.5.9-2.3 2-1.9 2.3.3.4-.2.7-1.2.7s-1.6.2-1.3.5c.3.3-1.2 2.3-3.3 4.4-2.1 2.2-3.5 4.2-3.2 4.5.4.3.1.6-.6.6s-.9.4-.6 1c.3.6.2 1-.3 1-1.2 0-11.1 20-11.6 23.6-.1.7-.5 1.6-.8 2-.4.3-.4 1.2-.1 2 .3.8.1 1.4-.4 1.4s-1 .8-1.1 1.7c-.5 5.8-.4 211.5.2 212 .8.8 194.8.7 204.1-.1 12.6-1.1 16.8-1.8 23.5-3.6 2.5-.7 5-1.3 5.5-1.5.6-.1 2.4-.7 4-1.4 1.7-.7 3.2-1.2 3.4-1.1.2.1.7-.2 1-.7.3-.4 2.4-1.7 4.6-2.8 2.1-1.1 5.2-3.1 6.7-4.3 1.5-1.3 2.8-2.1 2.8-1.8 0 .4 1.3-.7 2.9-2.3 1.6-1.6 3.2-2.7 3.5-2.4.3.4.6-.2.6-1.2s.3-1.6.6-1.2c1 .9 4.7-3 3.9-4.2-.3-.7-.3-1.1.2-1 2 .3 3.4-.2 2.8-1-.3-.6.1-1.3.8-1.8 1.9-1.1 8.1-10.1 9.7-14 .7-1.8 1.6-3.3 2.1-3.3s.9-.8.9-1.9c0-1 .7-3.8 1.6-6.2 2-5.8 4.1-16.7 4.9-26 .4-4.1.9-9 1-10.9.6-5.8.7-48.1.2-48.7-.4-.4-51.1-.7-69.3-.4l-4 .1-.1 24.7c-.2 26.4-.9 31.5-5.1 37.3-1.3 1.6-2.9 3-3.8 3-.8 0-1.2.4-.9 1 .3.5.3 1-.2 1.1-.4 0-1.6.2-2.5.5-1 .2-2.6.6-3.5.8-1 .3-1.8.5-1.8.6 0 .4-28.1 1.3-40 1.2-88.8-.6-83.5-.3-86-4.2-.5-.9-.9-24.5-1-59.9v-58.4l4.8-5c2.6-2.7 4.7-5.1 4.7-5.3 0-1 3.9-4.2 4.4-3.7.3.4.6.1.6-.4 0-.6 1.5-2.7 3.3-4.6 10.2-10.9 17.2-18 24-24.4 4.2-4 7.7-7.8 7.7-8.4 0-.7.3-1 .6-.6.8.8 9-7.4 8.6-8.6-.1-.5.1-.6.6-.3s4.4-3.2 8.8-7.7c4.3-4.5 8.2-8 8.7-7.9.4.1.7-.2.7-.7 0-1.3 12.7-14 13.4-13.3.3.3.6 0 .6-.7 0-1.6 4.5-6.1 6.1-6.1.7 0 1-.3.6-.6-.3-.3 2.7-3.7 6.6-7.6 4-3.9 7.1-7.4 7-7.9-.2-.5.1-.9.6-.9.6 0 6.7-5.9 13.8-13.1 17.5-18 23-23.5 29.9-29.9 3.2-3 6.4-6.4 7.1-7.5.7-1.1 1.2-1.6 1.3-1.1 0 .4 3.5-2.7 7.8-7 4.2-4.3 8-7.7 8.5-7.6.4.1.7-.2.7-.7 0-1.4 5.7-7.1 6.4-6.4.3.3.6.1.6-.5 0-.7 1.7-3 3.8-5.1 6.2-6.4 9.2-10.1 9.2-11 0-.5.4-1.1.8-1.3 2.2-.9 11.7-19.9 12.7-25.3.2-1.1.4-2.2.5-2.5.1-.3.2-.8.1-1.3 0-.4.2-.7.6-.7.5 0 .9-1 1-2.3.1-1.2.5-4 .9-6.2s.7-13.9.7-26-.1-57.3-.2-100.5l-.1-78.5H569.9c-57.8 0-105.2.1-105.3.2zM59 391c-9.4 2.5-15.5 6.2-22.3 13.4-6.6 7-10.6 17.4-13.5 35.1-.9 5.6-.9 184.6.1 192 1.5 12.4 3.6 19.3 8 26.6 4.2 7 11.4 14 15.6 15.4 1.2.3 2.1 1.1 2.1 1.7 0 .6.3.9.6.5.4-.3 1.9 0 3.3.8 1.5.7 6.5 2.2 11.2 3.1 7.3 1.6 14.1 1.8 51.4 1.8 39.9 0 72.6-.8 78.5-1.8 1.4-.2 5.2-.7 8.5-1.1 14.7-1.7 31.7-6.3 41.5-11.1 6-3 16-9.5 16-10.5 0-.5.5-.9 1.1-.9 1.6 0 9.6-8.7 14.1-15.4 6.8-9.9 13.1-24.9 14.5-34.1.2-1.7.7-3.7 1-4.5 1-2.4 1.2-18.1.3-23-1.5-8.4-2-10.5-4.6-18.5-6.4-19.5-14.7-31.6-27.4-39.7-8.7-5.5-10.4-6.4-12.5-7.1-1.1-.3-5-1.7-8.8-3.1-3.7-1.4-6.7-2.2-6.7-1.8 0 .3-.5.1-1.2-.6s-2.2-1.2-3.3-1.2c-1.2 0-2.5-.3-2.9-.7-.3-.4-1.4-.8-2.4-.9-1.8-.2-4.1-.6-11.2-2.3-2.4-.5-4.6-.8-4.9-.6-.2.3-1 0-1.8-.6-.9-.9-1.3-.8-1.3 0s-.6.9-1.7.3c-1-.5-22-.8-46.8-.7-27.3.1-45.5-.2-46.2-.8-.7-.5-1.3-.6-1.3-.3 0 .4-.8 0-1.7-1-1.6-1.6-1.8-4-1.8-22.2l.1-20.5 4.6-4.1 4.7-4.1 78.5.1 78.6.1v-59.5H167.3c-93.6 0-102.3.2-108.3 1.8zm110.5 165.4c3.9.4 7.7.8 8.5 1 .8.1 3.3.6 5.5 1.1 2.2.4 5 1.3 6.2 2.1 1.2.8 2.9 1.4 3.8 1.4.9 0 1.8.7 2.1 1.5.4.8 1.1 1.5 1.6 1.5s2.9 2 5.2 4.6c9.6 10.3 11.4 30.1 3.5 38.4-.8.8-2.6 3-4.2 4.8-1.5 1.9-2.7 3-2.7 2.6 0-.4-.8.3-1.9 1.4-1 1.2-2.5 2.2-3.2 2.2-.8 0-2.5.9-3.8 1.9-1.4 1-3.1 1.7-3.8 1.4-.7-.3-2.4.2-3.7 1-1.8 1.2-6.9 1.7-22.7 2.3-29.9 1-42 .8-54.6-1-2.3-.4-2.6-1.6-2.9-12.6-.2-6.1-.5-11.4-.9-11.9-.3-.5-.1-1.2.5-1.6.6-.4.7-1.2.3-1.8-.8-1.3-.7-18.5.1-28.5.3-3.7.1-6.2-.5-6.2-.5 0 .2-1.2 1.7-2.7 2.6-2.6 2.9-2.6 18.2-3 8.6-.2 15.7-.4 15.8-.6.5-.4 24.9.1 31.9.7z"/></svg>